<?xml version="1.0" standalone="no"?>
<!DOCTYPE svg PUBLIC "-//W3C//DTD SVG 20010904//EN"
 "http://www.w3.org/TR/2001/REC-SVG-20010904/DTD/svg10.dtd">
<svg version="1.0" xmlns="http://www.w3.org/2000/svg"
 width="1024.000000pt" height="1024.000000pt" viewBox="0 0 1024.000000 1024.000000"
 preserveAspectRatio="xMidYMid meet">
<metadata>
Created by potrace 1.14, written by Peter Selinger 2001-2017
</metadata>
<g transform="translate(0.000000,1024.000000) scale(0.100000,-0.100000)"
fill="#000000" stroke="none">
<path d="M0 5120 l0 -5120 4720 0 4720 0 0 80 0 80 320 0 320 0 0 -80 0 -80
80 0 80 0 0 5120 0 5120 -5120 0 -5120 0 0 -5120z m6743 4177 c59 -78 136
-174 209 -263 31 -38 90 -112 132 -164 42 -52 81 -96 86 -98 6 -2 10 -8 10
-13 0 -8 42 -61 279 -353 53 -66 114 -143 136 -171 22 -29 55 -70 73 -91 29
-35 179 -220 277 -344 20 -25 73 -90 118 -146 45 -56 102 -127 127 -159 25
-32 71 -88 103 -124 56 -64 69 -91 45 -91 -7 0 -5 -5 5 -11 23 -14 22 -18 -18
-64 -20 -22 -57 -66 -83 -99 -305 -379 -487 -566 -907 -932 -195 -170 -555
-457 -629 -504 l-36 -22 48 -56 c27 -32 86 -106 132 -167 46 -60 102 -133 124
-161 23 -28 59 -77 81 -109 22 -32 58 -79 80 -104 22 -26 67 -83 98 -126 32
-44 98 -132 148 -195 50 -63 129 -166 177 -228 48 -62 101 -130 117 -151 207
-261 675 -887 675 -903 0 -14 -113 -158 -219 -278 -36 -42 -83 -96 -103 -120
-54 -66 -218 -260 -347 -412 -253 -298 -318 -373 -361 -422 -25 -28 -63 -74
-85 -100 -132 -162 -461 -552 -500 -594 -14 -15 -35 -41 -47 -58 l-22 -32
-350 -6 c-193 -3 -705 -8 -1137 -12 l-785 -6 -27 41 c-15 23 -34 49 -42 59
-15 18 -30 37 -130 169 -32 43 -72 92 -87 108 -15 17 -28 34 -28 38 0 4 -36
54 -80 110 -84 107 -137 176 -245 317 -36 47 -76 99 -90 115 -21 27 -56 72
-77 100 -4 6 -29 38 -55 72 -27 34 -66 85 -88 113 -22 29 -48 62 -57 74 -40
48 -104 131 -123 155 -10 14 -53 69 -95 121 -170 214 -206 259 -230 290 -14
18 -42 54 -62 79 -21 25 -38 52 -38 61 0 8 23 44 50 80 28 36 65 88 84 115 18
28 44 62 57 76 13 14 31 36 39 49 8 12 35 48 60 80 58 75 130 172 203 274 32
44 71 95 86 111 23 25 186 239 331 435 72 97 116 157 164 220 28 36 105 139
173 230 67 91 145 196 174 233 l51 68 -27 27 c-15 15 -63 72 -106 127 -43 55
-88 111 -99 125 -11 14 -68 86 -126 160 -109 140 -131 169 -266 335 -44 55
-93 116 -109 135 -15 19 -53 67 -84 105 -57 71 -128 160 -232 294 -32 41 -62
79 -68 85 -29 32 -107 129 -150 186 -27 36 -55 70 -61 75 -7 6 -40 45 -74 88
-41 52 -58 82 -52 90 36 48 184 250 208 284 16 23 63 86 104 140 42 54 91 121
110 148 19 28 38 55 42 60 5 6 32 42 60 80 28 39 55 72 58 75 4 3 29 37 55 75
27 39 66 91 87 116 21 26 38 50 38 54 0 4 39 58 88 120 48 63 103 137 122 165
19 28 67 93 107 145 39 51 91 120 115 153 24 33 61 82 83 110 22 28 78 103
125 168 47 65 103 137 125 160 l40 42 455 6 c250 4 721 10 1045 15 325 4 631
8 680 9 l90 2 48 -63z"/>
<path d="M5730 8610 c-294 -4 -687 -11 -872 -15 l-337 -8 -128 -170 c-70 -93
-132 -178 -138 -188 -5 -9 -26 -35 -45 -56 -19 -21 -47 -56 -62 -78 -15 -22
-47 -65 -71 -95 -24 -31 -106 -139 -182 -240 -76 -102 -149 -196 -162 -210
-12 -14 -39 -48 -60 -77 -66 -91 -186 -247 -211 -275 l-25 -27 87 -113 c47
-62 124 -162 171 -223 47 -60 100 -130 117 -155 18 -25 59 -80 92 -122 34 -42
93 -118 131 -168 80 -105 175 -227 222 -285 45 -56 280 -371 291 -391 9 -16
52 -16 558 -10 302 4 648 11 769 14 l220 7 70 44 c39 24 72 47 75 50 3 4 19
15 35 25 116 72 428 318 540 425 39 36 93 84 120 106 74 58 451 439 519 526
33 40 73 88 90 105 17 17 51 59 76 94 25 36 62 83 83 106 l37 42 -67 82 c-38
46 -86 106 -108 134 -22 28 -54 65 -71 82 -17 18 -34 38 -37 45 -3 8 -38 52
-77 99 -78 93 -175 216 -202 258 -10 15 -39 50 -65 78 -27 27 -79 92 -118 142
-38 51 -82 107 -97 125 -16 17 -81 98 -145 179 l-118 148 -185 -2 c-102 -1
-426 -5 -720 -8z m13 -837 c196 -72 315 -246 332 -483 14 -194 -36 -340 -160
-466 -71 -71 -125 -104 -215 -129 -25 -6 -55 -15 -67 -19 l-23 -7 0 575 0 575
33 -10 c17 -6 63 -22 100 -36z"/>
<path d="M5234 4972 l-600 -2 -72 -93 c-77 -99 -179 -236 -226 -301 -15 -23
-45 -61 -65 -86 -21 -25 -46 -58 -57 -75 -10 -16 -64 -88 -119 -160 -55 -71
-122 -159 -148 -195 -26 -36 -85 -113 -130 -172 -217 -282 -347 -458 -347
-467 0 -6 24 -39 54 -74 29 -34 122 -150 205 -257 149 -191 286 -365 346 -441
17 -21 63 -80 103 -131 86 -110 175 -221 219 -274 18 -22 43 -55 56 -74 l23
-35 414 0 c228 0 707 4 1063 9 l649 9 38 41 c21 23 51 57 66 76 16 19 31 37
34 40 4 4 58 71 100 124 8 11 32 38 53 60 21 23 59 68 85 101 25 33 63 80 84
105 22 25 42 50 46 55 4 6 36 44 72 85 36 41 95 111 130 155 36 44 92 112 125
150 33 39 78 92 100 119 22 27 70 83 107 125 37 42 68 81 68 87 0 6 -10 22
-22 35 -13 14 -49 59 -80 100 -32 41 -65 83 -75 94 -10 11 -25 30 -33 42 -8
11 -51 68 -95 125 -44 56 -126 164 -183 238 -56 74 -127 167 -158 205 -30 39
-78 101 -107 139 -28 38 -92 119 -142 181 -49 62 -105 132 -122 156 -18 24
-49 64 -69 89 -20 25 -46 57 -58 73 l-21 27 -355 -2 c-195 -2 -625 -4 -956 -6z
m538 -913 c131 -70 228 -208 267 -380 18 -79 13 -206 -14 -312 -36 -145 -88
-230 -188 -305 -34 -25 -214 -85 -233 -78 -12 4 -14 102 -14 580 l0 575 80
-34 c44 -19 90 -39 102 -46z"/>
</g>
</svg>
